<?xml version="1.0" encoding="utf-8"?>
<!-- Generator: Adobe Illustrator 24.0.2, SVG Export Plug-In . SVG Version: 6.00 Build 0)  -->
<svg version="1.1" id="Layer_1" xmlns="http://www.w3.org/2000/svg" xmlns:xlink="http://www.w3.org/1999/xlink" x="0px" y="0px"
	 viewBox="0 0 1835.3 2500" style="enable-background:new 0 0 1835.3 2500;" xml:space="preserve">
<style type="text/css">
	.st0{fill:none;}
	.st1{fill:#2062AF;}
	.st2{fill:#3C9CD7;}
	.st3{fill:#FFFFFF;}
	.st4{fill:url(#SVGID_1_);}
	.st5{fill:url(#SVGID_2_);}
	.st6{fill:url(#SVGID_3_);}
	.st7{opacity:5.000000e-02;enable-background:new    ;}
	.st8{fill:url(#SVGID_4_);}
</style>
<path class="st0" d="M-332.3,0h2500v2500h-2500V0z"/>
<path class="st1" d="M1642.7,2304.8l-725,195.2l-725-195.2L25.3,492.2H1810L1642.7,2304.8z"/>
<path class="st2" d="M917.7,639v1705.3l1.6,0.4l586.7-158L1641.5,639L917.7,639L917.7,639z"/>
<path d="M506.2,225.9V118h157.4V0H388.1v333.7h275.4V225.9H506.2z M946.7,118h110V0H781.3v118c36.9,36.9,56.1,54.5,109.4,107.8
	c-31.2,0-109.4,0.1-109.4,0.1v107.7h275.5V225.9L946.7,118L946.7,118z M1337.2,118h110V0h-275.5v118
	c36.9,36.9,56.1,54.5,109.4,107.8c-31.1,0-109.4,0.1-109.4,0.1v107.7h275.5V225.9L1337.2,118L1337.2,118z"/>
<path class="st3" d="M917,1092.3l-518.9,216.1l17.2,214L917,1307.8l533.7-228.2l22.1-218.9L917,1092.3L917,1092.3z"/>
<linearGradient id="SVGID_1_" gradientUnits="userSpaceOnUse" x1="-607.9626" y1="306.2467" x2="-607.9626" y2="213.5913" gradientTransform="matrix(4.6418 0 0 4.6418 3479.5901 100.8076)">
	<stop  offset="0.387" style="stop-color:#D1D3D4;stop-opacity:0"/>
	<stop  offset="1" style="stop-color:#D1D3D4"/>
</linearGradient>
<path class="st4" d="M398.1,1308.4l17.2,214L917,1307.8v-215.6L398.1,1308.4z"/>
<linearGradient id="SVGID_2_" gradientUnits="userSpaceOnUse" x1="-492.1941" y1="260.0331" x2="-492.1941" y2="163.7219" gradientTransform="matrix(4.6418 0 0 4.6418 3479.5901 100.8076)">
	<stop  offset="0.387" style="stop-color:#D1D3D4;stop-opacity:0"/>
	<stop  offset="1" style="stop-color:#D1D3D4"/>
</linearGradient>
<path class="st5" d="M1472.8,860.8L917,1092.3v215.6l533.7-228.2L1472.8,860.8z"/>
<linearGradient id="SVGID_3_" gradientUnits="userSpaceOnUse" x1="-663.6871" y1="347.5719" x2="-441.1506" y2="347.5719" gradientTransform="matrix(4.6418 0 0 4.6418 3479.5901 100.8076)">
	<stop  offset="0" style="stop-color:#E8E7E5"/>
	<stop  offset="1" style="stop-color:#FFFFFF"/>
</linearGradient>
<path class="st6" d="M398.9,1308.4l17.2,214l769.8,2.5l-17.2,285.3l-253.3,71.3l-243.5-61.5l-14.8-177.1H430.9l29.5,341.9
	L917.8,2120l455-132.8l59-678.8H398.9z"/>
<path class="st7" d="M917,1308.4H398.1l17.2,214l501.7,1.6L917,1308.4L917,1308.4z M917,1880.7l-2.5,0.7l-243.5-61.5l-14.8-177.1
	H430.1l29.5,341.9L917,2120V1880.7z"/>
<linearGradient id="SVGID_4_" gradientUnits="userSpaceOnUse" x1="-673.9261" y1="187.2995" x2="-432.3232" y2="187.2995" gradientTransform="matrix(4.6418 0 0 4.6418 3479.5901 100.8076)">
	<stop  offset="0" style="stop-color:#E8E7E5"/>
	<stop  offset="1" style="stop-color:#FFFFFF"/>
</linearGradient>
<path class="st8" d="M351.4,860.8h1121.5l-22.1,218.9H378.4L351.4,860.8L351.4,860.8z"/>
<path class="st7" d="M917,860.8H351.4l27.1,218.9H917L917,860.8L917,860.8z"/>
</svg>
