<svg xmlns="http://www.w3.org/2000/svg" xmlns:xlink="http://www.w3.org/1999/xlink" viewBox="0 0 99.03 99.45"><defs><style>.cls-1{fill:url(#linear-gradient);}.cls-2{fill:url(#linear-gradient-2);}.cls-3{fill:url(#linear-gradient-3);}.cls-4{fill:url(#linear-gradient-4);}</style><linearGradient id="linear-gradient" x1="59.88" y1="95.55" x2="59.88" y2="26.64" gradientUnits="userSpaceOnUse"><stop offset="0" stop-color="#69a8aa"/><stop offset="1" stop-color="#334f64"/></linearGradient><linearGradient id="linear-gradient-2" x1="25.3" y1="95.55" x2="25.3" y2="26.64" xlink:href="#linear-gradient"/><linearGradient id="linear-gradient-3" x1="25.26" y1="95.55" x2="25.26" y2="26.64" xlink:href="#linear-gradient"/><linearGradient id="linear-gradient-4" x1="49.52" y1="95.55" x2="49.52" y2="26.64" xlink:href="#linear-gradient"/></defs><title>Asset 13</title><g id="Layer_2" data-name="Layer 2"><g id="Layer_1-2" data-name="Layer 1"><path class="cls-1" d="M82.81,55.32c-.36-7.73-3.76-15.07-11.26-18.11A17,17,0,0,0,55,39.36c-.42-1.31-1.37-2.25-3.43-2.33s-4.24,0-6.35,0-5-.6-6.8.39c-1.56.85-1.54,2.59-1.52,4.14Q37,45.24,37,48.9c0,4.59,0,9.18,0,13.77s-.07,9.47-.1,14.21c0,1.65-.29,3.7,1.19,4.84s4,.67,5.73.67c2.18,0,4.36,0,6.54,0,1.37,0,2.91.07,4-1s1-2.27,1-3.51c0-2.45,0-4.9,0-7.34,0-4.61-.08-9.23,0-13.83.08-3.29,3.37-6.35,6.74-4.76,3.11,1.47,2.43,6.73,2.44,9.47q0,7.18,0,14.36c0,1.54-.39,3.65.46,5.06,1.06,1.74,3.1,1.54,4.85,1.52q3.28,0,6.55,0c1.74,0,4.2.47,5.59-.89s.93-3.49.93-5.12c0-2.3,0-4.6,0-6.9C82.84,64.77,83,60,82.81,55.32Zm-13,22.13a2.11,2.11,0,0,1-.35,0c0-.1,0-.21,0-.32,0-1.74,0-3.48,0-5.22q0-4.35,0-8.7a44.6,44.6,0,0,0-.38-8.72c-.84-4.24-3.68-7.36-8.1-7.72a9.84,9.84,0,0,0-10,6.41c-1.09,2.83-.6,6.22-.61,9.19,0,3.46,0,6.92,0,10.38,0,1.57,0,3.14,0,4.72H44.67c-.79,0-1.87.17-2.86.18v-.31c0-.86,0-1.72,0-2.59l0-4.73c0-3.3,0-6.6.06-9.9s0-6.31,0-9.47c0-1.72,0-3.44,0-5.16,0-.86,0-1.72,0-2.59,0-.15.06-.58.06-1,1.39,0,2.8.09,4.15.09h4.41c0,1-.16,2.16-.15,2.85A2.24,2.24,0,0,0,51.64,47a2,2,0,0,0,2.91-.38,2.21,2.21,0,0,0,.37-.43c2.94-3.46,6.7-5.65,11.43-5.2a12.23,12.23,0,0,1,9.22,5.81c2.89,4.72,2.33,10.54,2.33,15.83v8.62c0,1.43,0,2.87,0,4.3,0,.58,0,1.15,0,1.73v.14A66.8,66.8,0,0,0,69.79,77.45Z"/><path class="cls-2" d="M31.83,37.12c-1.81-.39-3.94-.06-5.79-.06-2.08,0-4.17-.09-6.24,0C15.26,37.19,16,41.37,16,44.8Q16,58,16,71.14c0,2.2,0,4.39,0,6.59C16,79.35,16,81,17.56,82c1.33.77,3.24.43,4.7.43q3.3,0,6.6,0c1.78,0,3.9.3,5-1.41s.54-4.23.53-6c0-5.1,0-10.19,0-15.29,0-4.36,0-8.73,0-13.1C34.42,43.73,35.7,38,31.83,37.12ZM25.15,77.44H21c0-.47-.05-.91-.05-1V72.9q0-6.59,0-13.17t0-13.17c0-.41.22-2.89.21-4.57H27.7c.22,0,1,.07,1.79.1,0,.33,0,.67,0,1v3.49c0,4.37,0,8.74,0,13.1s0,8.74,0,13.11c0,1.16,0,2.32,0,3.49,0,.33,0,.66,0,1C27.91,77.26,25.56,77.44,25.15,77.44Z"/><path class="cls-3" d="M25.72,17.63a2.2,2.2,0,0,0-.45,0,2.2,2.2,0,0,0-.45,0c-5.06.37-9.55,3.8-9.6,9.24s4.43,9.44,9.78,9.61a9.76,9.76,0,0,0,10.3-9.27C35.5,21.68,30.86,18,25.72,17.63Zm4.64,9.58c-.17,2.84-2.68,4.46-5.36,4.33s-4.89-1.85-4.84-4.67,2.55-4.23,5.11-4.32C27.92,22.63,30.53,24.25,30.36,27.21Z"/><path class="cls-4" d="M98.87,71.23V30.38c0-6.33.38-12.79,0-19.1-.34-5.35-3.88-10-9.29-11A48.64,48.64,0,0,0,80.94.06H32c-6.4,0-12.81,0-19.21,0C7.4.09,2.46,2.43.66,7.89-.22,10.57,0,13.53,0,16.31V84.18C0,89.6.48,94.94,5.71,97.92c2.44,1.39,5.14,1.52,7.87,1.52h70c3.24,0,6.47.15,9.42-1.43a11.12,11.12,0,0,0,5.29-6.4c1-2.91.62-6.18.62-9.2ZM10.22,10.54c.29-.58.15-.14,0,0ZM89,88.17c.1-.74-.56,1.4-.16.58-.28.57,0,.35-.61.62.67-.32-.31.11-.51.14a12.31,12.31,0,0,1-1.53,0c-5.68,0-11.37,0-17,0h-52c-1.94,0-4.89.25-6.14-.11-.75-.21-.29,0-.77-.48.54.52,0-.24,0-.15-.09-.39-.27-1.06-.21-.68-.31-2,0-5.1,0-7.44V72q0-8.7,0-17.4,0-17.41,0-34.81c0-2.6-.1-5.23,0-7.83,0-.21,0-.36,0-.48l0-.19c0-.19.39-1,.2-.65,0,0,0-.07.05-.1.44-.31.1-.28.41-.37A6.59,6.59,0,0,1,12,9.94c1.44-.08,2.91,0,4.36,0H79.2a81.42,81.42,0,0,1,8.29,0c.79.12,1.46.6,1.47,1.33.26,12.81,0,25.64,0,38.45V84.14A31.87,31.87,0,0,1,89,88.17Z"/></g></g></svg>