<svg xmlns="http://www.w3.org/2000/svg" viewBox="0 0 198 63.74"><defs><style>.cls-1{fill:#1c5069;}</style></defs><title>Asset 8</title><g id="Layer_2" data-name="Layer 2"><g id="Layer_1-2" data-name="Layer 1"><polygon class="cls-1" points="33.59 54.59 29.97 54.59 29.97 47.14 26.14 47.14 26.14 63.74 29.97 63.74 29.97 58.41 33.59 58.41 33.59 63.74 37.42 63.74 37.42 47.14 33.59 47.14 33.59 54.59"/><path class="cls-1" d="M52.28,63.74h3.83V58.41h3.62v5.33h3.83V47.14H52.28ZM56.11,51h3.62v3.63H56.11Z"/><polygon class="cls-1" points="85.88 54.59 82.26 54.59 82.26 47.14 78.43 47.14 78.43 63.74 82.26 63.74 82.26 58.41 85.88 58.41 85.88 63.74 89.71 63.74 89.71 47.14 85.88 47.14 85.88 54.59"/><path class="cls-1" d="M104.57,63.74h3.83V58.41H112v5.33h3.83V47.14H104.57ZM108.4,51H112v3.63H108.4Z"/><path class="cls-1" d="M130.71,47.14v16.6h9.42L142,61.86V49l-1.86-1.86Zm7.45,12.2-.55.56h-3.07V51h2.52l1.1,1.11Z"/><path class="cls-1" d="M156.85,63.74h3.83V58.41h3.62v5.33h3.83V47.14H156.85ZM160.68,51h3.62v3.63h-3.62Z"/><polygon class="cls-1" points="179.27 63.74 183.1 63.74 183.1 50.97 186.72 50.97 186.72 63.74 190.55 63.74 190.55 50.97 194.17 50.97 194.17 63.74 198 63.74 198 47.14 179.27 47.14 179.27 63.74"/><polygon class="cls-1" points="1.86 47.14 0 47.14 0 49 0 50.97 0 56.55 0 58.41 1.86 58.41 7.45 58.41 7.45 59.9 0 59.9 0 63.74 8.18 63.74 9.42 63.74 11.28 63.74 11.28 63.68 11.28 61.87 11.28 60.22 11.28 56.45 11.28 54.59 9.42 54.59 3.83 54.59 3.83 50.97 11.28 50.97 11.28 47.14 2.4 47.14 1.86 47.14"/><rect class="cls-1" x="179.14" width="18.86" height="9.43"/><rect class="cls-1" x="155.57" width="18.86" height="9.43"/><rect class="cls-1" x="132" width="18.86" height="9.43"/><rect class="cls-1" x="179.14" y="14.14" width="18.86" height="28.29"/><rect class="cls-1" x="155.57" y="14.14" width="18.86" height="28.29"/><rect class="cls-1" x="132" y="14.14" width="18.86" height="28.29"/><rect class="cls-1" x="108.43" width="18.86" height="42.43"/><rect class="cls-1" x="56.57" width="47.14" height="18.86"/><polygon class="cls-1" points="84.86 23.57 75.43 23.57 66 23.57 56.57 23.57 56.57 42.43 75.43 42.43 75.43 33 84.86 33 84.86 42.43 103.71 42.43 103.71 23.57 94.29 23.57 84.86 23.57"/><rect class="cls-1" x="33" width="18.86" height="42.43"/><rect class="cls-1" y="23.57" width="28.29" height="18.86"/></g></g></svg>