<svg xmlns="http://www.w3.org/2000/svg" viewBox="0 0 378 121.69"><defs><style>.cls-1{fill:#52aaab;}.cls-2{fill:#1c5069;}</style></defs><title>Asset 6</title><g id="Layer_2" data-name="Layer 2"><g id="Layer_1-2" data-name="Layer 1"><polygon class="cls-1" points="64.13 104.21 57.22 104.21 57.22 89.99 49.91 89.99 49.91 121.69 57.22 121.69 57.22 111.52 64.13 111.52 64.13 121.69 71.44 121.69 71.44 89.99 64.13 89.99 64.13 104.21"/><path class="cls-1" d="M99.82,121.69h7.31V111.52H114v10.17h7.31V90H99.82Zm7.31-24.39H114v6.91h-6.91Z"/><polygon class="cls-1" points="163.95 104.21 157.03 104.21 157.03 89.99 149.72 89.99 149.72 121.69 157.03 121.69 157.03 111.52 163.95 111.52 163.95 121.69 171.26 121.69 171.26 89.99 163.95 89.99 163.95 104.21"/><path class="cls-1" d="M199.63,121.69h7.31V111.52h6.91v10.17h7.31V90H199.63Zm7.31-24.39h6.91v6.91h-6.91Z"/><path class="cls-1" d="M249.54,90v31.7h18l3.55-3.58V93.54L267.52,90Zm14.22,23.29-1.06,1.07h-5.85v-17h4.8l2.11,2.11Z"/><path class="cls-1" d="M299.45,121.69h7.31V111.52h6.91v10.17H321V90H299.45Zm7.31-24.39h6.91v6.91h-6.91Z"/><polygon class="cls-1" points="342.25 121.69 349.56 121.69 349.56 97.3 356.47 97.3 356.47 121.69 363.78 121.69 363.78 97.3 370.69 97.3 370.69 121.69 378 121.69 378 89.99 342.25 89.99 342.25 121.69"/><polygon class="cls-1" points="3.56 89.99 0 89.99 0 93.54 0 97.3 0 107.96 0 111.52 3.56 111.52 14.22 111.52 14.22 114.35 0 114.35 0 121.69 15.61 121.69 17.98 121.69 21.53 121.69 21.53 121.58 21.53 118.11 21.53 114.95 21.53 107.76 21.53 104.21 17.98 104.21 7.31 104.21 7.31 97.3 21.53 97.3 21.53 89.99 4.59 89.99 3.56 89.99"/><rect class="cls-1" x="342" width="36" height="18"/><rect class="cls-1" x="297" width="36" height="18"/><rect class="cls-1" x="252" width="36" height="18"/><rect class="cls-2" x="342" y="27" width="36" height="54"/><rect class="cls-2" x="297" y="27" width="36" height="54"/><rect class="cls-2" x="252" y="27" width="36" height="54"/><rect class="cls-2" x="207" width="36" height="81"/><rect class="cls-2" x="108" width="90" height="36"/><polygon class="cls-2" points="162 45 144 45 126 45 108 45 108 81 144 81 144 63 162 63 162 81 198 81 198 45 180 45 162 45"/><rect class="cls-2" x="63" width="36" height="81"/><rect class="cls-2" y="45" width="54" height="36"/></g></g></svg>