<?xml version="1.0" encoding="utf-8"?>
<!-- Generator: Adobe Illustrator 24.0.2, SVG Export Plug-In . SVG Version: 6.00 Build 0)  -->
<svg version="1.1" id="Layer_1" xmlns="http://www.w3.org/2000/svg" xmlns:xlink="http://www.w3.org/1999/xlink" x="0px" y="0px"
	 viewBox="0 0 198 63.7" style="enable-background:new 0 0 198 63.7;" xml:space="preserve">
<style type="text/css">
	.st0{fill:#FFFFFF;}
</style>
<title>Asset 10</title>
<g id="Layer_2_1_">
	<g id="Layer_1-2">
		<polygon class="st0" points="33.6,54.6 30,54.6 30,47.1 26.1,47.1 26.1,63.7 30,63.7 30,58.4 33.6,58.4 33.6,63.7 37.4,63.7 
			37.4,47.1 33.6,47.1 		"/>
		<path class="st0" d="M52.3,63.7h3.8v-5.3h3.6v5.3h3.8V47.1H52.3V63.7z M56.1,51h3.6v3.6h-3.6V51z"/>
		<polygon class="st0" points="85.9,54.6 82.3,54.6 82.3,47.1 78.4,47.1 78.4,63.7 82.3,63.7 82.3,58.4 85.9,58.4 85.9,63.7 
			89.7,63.7 89.7,47.1 85.9,47.1 		"/>
		<path class="st0" d="M104.6,63.7h3.8v-5.3h3.6v5.3h3.8V47.1h-11.3L104.6,63.7L104.6,63.7z M108.4,51h3.6v3.6h-3.6V51z"/>
		<path class="st0" d="M130.7,47.1v16.6h9.4l1.9-1.9V49l-1.9-1.9H130.7z M138.2,59.3l-0.6,0.6h-3.1V51h2.5l1.1,1.1v7.2H138.2z"/>
		<path class="st0" d="M156.9,63.7h3.8v-5.3h3.6v5.3h3.8V47.1h-11.3L156.9,63.7L156.9,63.7z M160.7,51h3.6v3.6h-3.6V51z"/>
		<polygon class="st0" points="179.3,63.7 183.1,63.7 183.1,51 186.7,51 186.7,63.7 190.6,63.7 190.6,51 194.2,51 194.2,63.7 
			198,63.7 198,47.1 179.3,47.1 		"/>
		<polygon class="st0" points="1.9,47.1 0,47.1 0,49 0,51 0,56.5 0,58.4 1.9,58.4 7.4,58.4 7.4,59.9 0,59.9 0,63.7 8.2,63.7 
			9.4,63.7 11.3,63.7 11.3,63.7 11.3,61.9 11.3,60.2 11.3,56.4 11.3,54.6 9.4,54.6 3.8,54.6 3.8,51 11.3,51 11.3,47.1 2.4,47.1 		
			"/>
		<rect x="179.1" y="0" class="st0" width="18.9" height="9.4"/>
		<rect x="155.6" y="0" class="st0" width="18.9" height="9.4"/>
		<rect x="132" y="0" class="st0" width="18.9" height="9.4"/>
		<rect x="179.1" y="14.1" class="st0" width="18.9" height="28.3"/>
		<rect x="155.6" y="14.1" class="st0" width="18.9" height="28.3"/>
		<rect x="132" y="14.1" class="st0" width="18.9" height="28.3"/>
		<rect x="108.4" y="0" class="st0" width="18.9" height="42.4"/>
		<rect x="56.6" y="0" class="st0" width="47.1" height="18.9"/>
		<polygon class="st0" points="84.9,23.6 75.4,23.6 66,23.6 56.6,23.6 56.6,42.4 75.4,42.4 75.4,33 84.9,33 84.9,42.4 103.7,42.4 
			103.7,23.6 94.3,23.6 		"/>
		<rect x="33" y="0" class="st0" width="18.9" height="42.4"/>
		<rect y="23.6" class="st0" width="28.3" height="18.9"/>
	</g>
</g>
</svg>
