<svg xmlns="http://www.w3.org/2000/svg" xmlns:xlink="http://www.w3.org/1999/xlink" viewBox="0 0 97.98 72.94"><defs><style>.cls-1{fill:url(#linear-gradient);}</style><linearGradient id="linear-gradient" x1="50.4" y1="73.31" x2="47.88" y2="6.93" gradientUnits="userSpaceOnUse"><stop offset="0" stop-color="#69a8aa"/><stop offset="1" stop-color="#eae7d5"/></linearGradient></defs><title>Asset 15</title><g id="Layer_2" data-name="Layer 2"><g id="Layer_1-2" data-name="Layer 1"><path class="cls-1" d="M97.81,39.53c0-9.74.39-19.56,0-29.29A10.42,10.42,0,0,0,88.48.09,5.08,5.08,0,0,0,87.59,0H12.4c-.67,0-1.34,0-2,0A10.42,10.42,0,0,0,.16,10.23c-.36,9.45,0,19,0,28.43V57c0,4.56-.57,9.42,3,13,3.17,3.17,7.11,3,11.14,3H83.46c3.93,0,7.7.22,10.93-2.61,3.94-3.46,3.42-8.41,3.42-13.07Zm-77-30.95h62.9L54.4,40.3c-1.32,1.43-2.69,3.53-4.33,4.64-2,1.32-3.84-1.52-5-2.76L25,21.3,12.76,8.55C15.45,8.52,18.15,8.58,20.84,8.58Zm68.4,53.79c-.13,2.36-2.12,2-3.91,2H35.63c-8.24,0-16.62.44-24.86,0-2.47-.13-2-2.31-2-4.2V16.71Q23.49,32.1,38.26,47.48c2.22,2.31,4.32,4.93,7.51,5.91,5.09,1.54,9.12-1,12.38-4.54L77.68,27.73,89.26,15.21c0,.18,0,.34,0,.48V51.38C89.24,55,89.45,58.74,89.24,62.37Z"/></g></g></svg>