<svg xmlns="http://www.w3.org/2000/svg" xmlns:xlink="http://www.w3.org/1999/xlink" viewBox="0 0 97.97 95.42"><defs><style>.cls-1{fill:url(#linear-gradient);}</style><linearGradient id="linear-gradient" x1="49.96" y1="72.42" x2="46.07" y2="-20.99" gradientUnits="userSpaceOnUse"><stop offset="0" stop-color="#52aaab"/><stop offset="1" stop-color="#ebe7d4"/></linearGradient></defs><title>ZlnNaX.tif</title><g id="Layer_2" data-name="Layer 2"><g id="Layer_1-2" data-name="Layer 1"><g id="ZlnNaX.tif"><path class="cls-1" d="M58,70.61c2.48-.53,4.75-.88,7-1.5,8.57-2.44,13.48-8.13,14.73-17,.79-5.55.95-11.11-2.43-15.93a7.07,7.07,0,0,1-1.39-6.36c.67-2.66,0-5.33-.65-8-.4-1.56-1.24-1.85-2.62-1.64A22.75,22.75,0,0,0,63.4,24a5.37,5.37,0,0,1-4.59.79A43.94,43.94,0,0,0,38.32,25a3.45,3.45,0,0,1-3-.51,25,25,0,0,0-9.58-4.14c-2.22-.37-2.38-.26-3,1.87a17.42,17.42,0,0,0-.2,10,1.74,1.74,0,0,1-.32,1.86c-4.28,5-4.78,10.89-4.1,17.05a25.56,25.56,0,0,0,1.4,6c2.81,7.6,8.77,11.16,16.3,12.71,1.29.26,2.59.46,4.09.73a12.7,12.7,0,0,0-2.79,5.94c-.1.61-.58.78-1.07,1a10,10,0,0,1-13-4.07c-1.53-2.41-3.39-4.37-6.21-5.14-1.21-.33-2.9-.78-3.47.45s1.11,1.76,2,2.39a14,14,0,0,1,4.81,6.38c1.9,4.57,5.5,6.57,10.24,6.83A16.65,16.65,0,0,0,35.62,84c.87-.24,1.25.11,1.24,1,0,2.42,0,4.83,0,7.25,0,2.6-1.46,3.66-3.94,2.82a47,47,0,0,1-16.53-9.7A47.82,47.82,0,0,1,.39,55,49,49,0,0,1,97.2,40.44c4.26,23.22-9.6,47-31.88,54.62C62.45,96,61,95,61,92c0-4,0-8,.05-12.08C61.13,76.54,60.5,73.41,58,70.61Z"/></g></g></g></svg>