<svg xmlns="http://www.w3.org/2000/svg" xmlns:xlink="http://www.w3.org/1999/xlink" viewBox="0 0 98.27 98.27"><defs><style>.cls-1{fill:url(#linear-gradient);}.cls-2{fill:url(#linear-gradient-2);}.cls-3{fill:url(#linear-gradient-3);}</style><linearGradient id="linear-gradient" x1="40.6" y1="-20.51" x2="58.25" y2="123.19" gradientUnits="userSpaceOnUse"><stop offset="0" stop-color="#69a8aa"/><stop offset="1" stop-color="#eae7d5"/></linearGradient><linearGradient id="linear-gradient-2" x1="40.6" y1="-20.51" x2="58.25" y2="123.19" xlink:href="#linear-gradient"/><linearGradient id="linear-gradient-3" x1="69.7" y1="-24.08" x2="87.34" y2="119.61" xlink:href="#linear-gradient"/></defs><title>9NxgDQ.tif (2)</title><g id="Layer_2" data-name="Layer 2"><g id="Layer_1-2" data-name="Layer 1"><g id="_9NxgDQ.tif" data-name="9NxgDQ.tif"><path class="cls-1" d="M98.26,49.17c0,6.68,0,13.37,0,20,0,5.59-1,11-3.9,15.85-4.3,7.26-10.86,11.2-19,12.66a27.46,27.46,0,0,1-4.79.46c-14.5,0-29,.24-43.5-.09C13,97.78,2.63,88.36.52,75.16a29.62,29.62,0,0,1-.43-4.79C.09,55.8-.17,41.22.2,26.65.56,12.49,9.9,2.22,23.88.37A44.79,44.79,0,0,1,29.67,0Q49.44,0,69.22,0a30.43,30.43,0,0,1,13.4,2.73c8.36,4,13.25,10.7,15,19.73a36.87,36.87,0,0,1,.59,7.19Q98.28,39.41,98.26,49.17Zm-48.88-40H29.22A27,27,0,0,0,24,9.61c-6.47,1.23-11.11,4.74-13.48,11a23.75,23.75,0,0,0-1.36,8.48q0,19.68,0,39.35A31.41,31.41,0,0,0,9.56,74c1.2,6.66,4.76,11.41,11.23,13.78a24.75,24.75,0,0,0,8.49,1.35q16.22,0,32.44,0A100.21,100.21,0,0,0,72.12,89c6-.61,11-3.09,14.36-8.27a20.29,20.29,0,0,0,3-11.25c0-12.89,0-25.79,0-38.68a35.3,35.3,0,0,0-.21-4.93c-.68-5-2.62-9.41-6.66-12.64a18.84,18.84,0,0,0-11.92-4C63.63,9.11,56.51,9.17,49.38,9.17Z"/><path class="cls-2" d="M74.46,49A25.33,25.33,0,1,1,49.25,23.61,25.35,25.35,0,0,1,74.46,49ZM49.19,65.13A16.22,16.22,0,1,0,33,49,16.29,16.29,0,0,0,49.19,65.13Z"/><path class="cls-3" d="M75.5,28.72A5.73,5.73,0,1,1,81.22,23,5.68,5.68,0,0,1,75.5,28.72Z"/></g></g></g></svg>