<svg xmlns="http://www.w3.org/2000/svg" xmlns:xlink="http://www.w3.org/1999/xlink" viewBox="0 0 101.91 101.92"><defs><style>.cls-1{fill:url(#linear-gradient);}.cls-2{fill:url(#linear-gradient-2);}</style><linearGradient id="linear-gradient" x1="52.35" y1="84.9" x2="48.46" y2="-8.52" gradientUnits="userSpaceOnUse"><stop offset="0" stop-color="#52aaab"/><stop offset="1" stop-color="#ebe7d4"/></linearGradient><linearGradient id="linear-gradient-2" x1="52.37" y1="84.9" x2="48.48" y2="-8.52" xlink:href="#linear-gradient"/></defs><title>Asset 23</title><g id="Layer_2" data-name="Layer 2"><g id="Layer_1-2" data-name="Layer 1"><path class="cls-1" d="M50,65.32a14.34,14.34,0,1,0,1.65-28.64A14.34,14.34,0,0,0,50,65.32Z"/><path class="cls-2" d="M0,22.39V79.53a22.4,22.4,0,0,0,22.39,22.39H79.52a22.4,22.4,0,0,0,22.39-22.39V22.39A22.4,22.4,0,0,0,79.52,0H22.39A22.4,22.4,0,0,0,0,22.39Zm50.9-2A30.61,30.61,0,1,1,20.32,51,30.7,30.7,0,0,1,50.9,20.38Z"/></g></g></svg>