<svg xmlns="http://www.w3.org/2000/svg" xmlns:xlink="http://www.w3.org/1999/xlink" viewBox="0 0 101 101.1"><defs><style>.cls-1{fill:url(#linear-gradient);}.cls-2{fill:url(#linear-gradient-2);}.cls-3{fill:url(#linear-gradient-3);}.cls-4{fill:url(#linear-gradient-4);}</style><linearGradient id="linear-gradient" x1="51.5" y1="92.33" x2="49.7" y2="17.14" gradientUnits="userSpaceOnUse"><stop offset="0" stop-color="#52aaab"/><stop offset="1" stop-color="#ebe7d4"/></linearGradient><linearGradient id="linear-gradient-2" x1="30.32" y1="92.84" x2="28.51" y2="17.65" xlink:href="#linear-gradient"/><linearGradient id="linear-gradient-3" x1="29.68" y1="92.85" x2="27.87" y2="17.66" xlink:href="#linear-gradient"/><linearGradient id="linear-gradient-4" x1="75.12" y1="91.76" x2="73.32" y2="16.57" xlink:href="#linear-gradient"/></defs><title>Oxv7uR.tif</title><g id="Layer_2" data-name="Layer 2"><g id="Layer_1-2" data-name="Layer 1"><g id="Oxv7uR.tif"><path class="cls-1" d="M101,50.56q0,20.91,0,41.83a8.28,8.28,0,0,1-5.07,7.92,8.15,8.15,0,0,1-3.61.78q-41.7,0-83.41,0A8.71,8.71,0,0,1,0,92C.09,78.45,0,64.91,0,51.36Q0,30.24,0,9.12C0,3.64,3.64,0,9.12,0,36.7,0,64.28.05,91.86,0A8.93,8.93,0,0,1,101,9.12C100.88,22.93,101,36.74,101,50.56Zm-57.6-2.29c0-.36.25-.41.43-.51,5.56-3.21,7-9.6,5.23-15.24-1.61-5.22-5.84-8.17-11.77-8.19-9.63,0-19.27.1-28.91.13-1,0-1.22.39-1.2,1.27.05,1.42,0,2.84,0,4.26q0,22.51,0,45c0,.88-.11,1.65,1.23,1.65,9.82,0,19.64.16,29.45-.11,5.46-.15,10.11-2.47,12.73-7.6,2.18-4.27,1.94-8.76.55-13.22-.86-2.73-2.27-5.13-5-6.46A25.68,25.68,0,0,0,43.36,48.27Zm35.52,12H91c1.67,0,1.82-.1,1.81-1.82a29.2,29.2,0,0,0-1.55-9.81c-1.66-4.63-4.54-8.2-9.27-10a23.12,23.12,0,0,0-12.71-.93c-5.63,1-9.93,3.92-12.54,9.08a25,25,0,0,0-2,16c1,5.84,3.93,10.64,9.47,13.2a25.93,25.93,0,0,0,21.08.31A11.12,11.12,0,0,0,92.7,67c.16-1.11,0-1.68-1.3-1.65-2.53.06-5.06,0-7.59,0-.5,0-1,0-1.3.5-2,3.42-5.19,4.16-8.81,3.92a9.19,9.19,0,0,1-8.41-7.78c-.23-1.5-.05-1.73,1.47-1.73ZM74.2,28.1c-3.15,0-6.3,0-9.44,0-1.12,0-1.68.28-1.55,1.49a10.83,10.83,0,0,1,0,2.13c-.13,1.25.42,1.62,1.61,1.61,4.12-.05,8.24,0,12.37,0,2.17,0,4.34,0,6.51,0C84.61,33.31,85,33,85,32a19.68,19.68,0,0,1,0-2.66c.07-1-.36-1.3-1.32-1.28C80.49,28.13,77.35,28.1,74.2,28.1Z"/><path class="cls-2" d="M27.27,67.62c-2.31,0-4.62,0-6.93,0-1,0-1.43-.25-1.42-1.35,0-3.77,0-7.55-.05-11.32,0-1,.34-1.3,1.31-1.29,4.57,0,9.14,0,13.71,0A6.16,6.16,0,0,1,40.29,60c.2,3.91-1.17,6.28-4.27,7.42a5.51,5.51,0,0,1-2,.29c-2.26,0-4.52,0-6.78,0Z"/><path class="cls-3" d="M26.36,33.38c1.95,0,3.91-.07,5.85,0,3.2.15,5,1.8,5.66,4.94.72,3.62-1,6.7-4.23,7.67a4.46,4.46,0,0,1-1.3.2c-4,0-7.89-.05-11.83,0-1.2,0-1.64-.43-1.62-1.65.06-3.28,0-6.56,0-9.84,0-1.07.38-1.39,1.39-1.36,2,0,4.08,0,6.11,0Z"/><path class="cls-4" d="M74.18,53.28c-2.48,0-5,0-7.45,0-1,0-1.17-.43-.88-1.24,1.58-4.39,4.84-7.17,9.84-6.38,3.8.6,6,3.94,6.89,6.81.28.91-.46.79-1,.8-2.48,0-5,0-7.45,0Z"/></g></g></g></svg>