<svg xmlns="http://www.w3.org/2000/svg" xmlns:xlink="http://www.w3.org/1999/xlink" viewBox="0 0 107.12 89.08"><defs><style>.cls-1{fill:url(#linear-gradient);}</style><linearGradient id="linear-gradient" x1="55.14" y1="86.77" x2="52.62" y2="20.38" gradientUnits="userSpaceOnUse"><stop offset="0" stop-color="#69a8aa"/><stop offset="1" stop-color="#eae7d5"/></linearGradient></defs><title>Asset 16</title><g id="Layer_2" data-name="Layer 2"><g id="Layer_1-2" data-name="Layer 1"><path class="cls-1" d="M102.85,10l-.16.06a27.43,27.43,0,0,0,1.87-4.15c1.09-3-2.57-5.09-5-3.86C97.76,2.94,96,3.9,94.16,4.63a23.88,23.88,0,0,1-5,1.69c-.68-.52-1.36-1.22-2-1.7A22.06,22.06,0,0,0,84,2.68a24.11,24.11,0,0,0-20.56-.76,24.5,24.5,0,0,0-11.1,9.53,22.87,22.87,0,0,0-3.2,8.07,24.46,24.46,0,0,0-.43,4.6c0,.37,0,.73,0,1.1C34.6,23.88,21.27,15.49,12.32,4.78,10.91,3.1,7.94,3.67,7,5.47A24.88,24.88,0,0,0,4.54,24.1a22.68,22.68,0,0,0,2.09,5.09,3.1,3.1,0,0,0-2.1,1c-2.46,2.56-.51,8.34.63,11.16a24.12,24.12,0,0,0,6.38,9.21l.29.24a3.31,3.31,0,0,0-1,3.43,27.32,27.32,0,0,0,8.77,12.14,21.86,21.86,0,0,0,5,2.79,41.73,41.73,0,0,1-20.47,4,2.85,2.85,0,0,0-1.83,0A3,3,0,0,0,0,76.47a3.31,3.31,0,0,0,1.55,3.06c17.16,11.29,40.33,12.36,59,4.31,17.18-7.43,30.33-23.9,34.72-42a69.81,69.81,0,0,0,1.93-15.44c0-.2.13-.75.16-1.07.5-.33,1.45-1.11,1.58-1.22,1-.85,2-1.75,2.87-2.69,1.83-1.9,4.69-4.58,5.25-7.22C107.54,11.94,105.45,9,102.85,10ZM21,55.84c.37.14.23.14,0,0ZM91,22.22c-1,1.86-.64,4.3-.73,6.35A57.81,57.81,0,0,1,89.67,35a56.84,56.84,0,0,1-8.9,22.94,55.44,55.44,0,0,1-19.2,17.81,56.31,56.31,0,0,1-26.19,6.48,56.09,56.09,0,0,1-19.05-3.08A47.53,47.53,0,0,0,35.2,70.79a3.45,3.45,0,0,0-1.73-6.37A18.62,18.62,0,0,1,19.94,57a24.49,24.49,0,0,0,3.94-.58c2.76-.64,3-3.82,1.51-5.71-1.27-1.62-4.1-1.81-5.88-2.78A18.1,18.1,0,0,1,14.63,44a16.81,16.81,0,0,1-3.1-5c-.18-.46-.34-.93-.48-1.4a30.09,30.09,0,0,0,5.18.75C20,38.59,20.37,33.77,18,32a17.72,17.72,0,0,1-6.88-18.39A62.19,62.19,0,0,0,28.31,26.05,61.44,61.44,0,0,0,40.44,30.5a63.53,63.53,0,0,0,6.44,1.21c1.88.26,4.4.93,6.27.42,2.14-.58,3-2.6,2.74-4.64a21.14,21.14,0,0,1-.12-6.15,17.72,17.72,0,0,1,5.49-10A17.41,17.41,0,0,1,78.94,7.88a17,17,0,0,1,4.55,2.5c1.84,1.4,3.1,3,5.63,2.79a17.06,17.06,0,0,0,2.45-.37c-.21.16-.41.33-.62.48-2.44,1.73-2,6.78,1.73,6.37l.83-.11A9.67,9.67,0,0,0,91,22.22Z"/></g></g></svg>