<svg xmlns="http://www.w3.org/2000/svg" xmlns:xlink="http://www.w3.org/1999/xlink" viewBox="0 0 51.2 43.22"><defs><style>.cls-1{fill:url(#linear-gradient);}</style><linearGradient id="linear-gradient" x1="25.73" y1="37.62" x2="25.06" y2="9.45" gradientUnits="userSpaceOnUse"><stop offset="0" stop-color="#52aaab"/><stop offset="1" stop-color="#2b4f67"/></linearGradient></defs><title>Asset 1</title><g id="Layer_2" data-name="Layer 2"><g id="Layer_1-2" data-name="Layer 1"><path class="cls-1" d="M44.87,6.33A21.6,21.6,0,0,0,13.33,35.82L0,43.22H29.59A21.61,21.61,0,0,0,44.87,6.33ZM29.59,9.46a6.16,6.16,0,1,1-6.16,6.16A6.1,6.1,0,0,1,29.59,9.46Zm-.11,29.78a17.39,17.39,0,0,1-9.39-2.73V33.72a9.5,9.5,0,0,1,19,0v2.66A17.45,17.45,0,0,1,29.48,39.24Z"/></g></g></svg>