<svg xmlns="http://www.w3.org/2000/svg" xmlns:xlink="http://www.w3.org/1999/xlink" viewBox="0 0 51.81 50.64"><defs><style>.cls-1{fill:url(#linear-gradient);}.cls-2{fill:url(#linear-gradient-10);}.cls-3{fill:url(#linear-gradient-11);}</style><linearGradient id="linear-gradient" x1="21.92" y1="44.74" x2="21.17" y2="6.84" gradientUnits="userSpaceOnUse"><stop offset="0" stop-color="#52aaab"/><stop offset="1" stop-color="#2b4f67"/></linearGradient><linearGradient id="linear-gradient-10" x1="29.69" y1="44.58" x2="28.95" y2="6.69" xlink:href="#linear-gradient"/><linearGradient id="linear-gradient-11" x1="44.88" y1="44.29" x2="44.14" y2="6.39" xlink:href="#linear-gradient"/></defs><title>Asset 2</title><g id="Layer_2" data-name="Layer 2"><g id="Layer_1-2" data-name="Layer 1"><path class="cls-1" d="M24.87,29a3.26,3.26,0,1,1-3.26-3.26A3.25,3.25,0,0,1,24.87,29Z"/><path class="cls-1" d="M21.61,16a13,13,0,1,0,13,13A13,13,0,0,0,21.61,16Zm0,21.55A8.52,8.52,0,1,1,30.13,29,8.52,8.52,0,0,1,21.61,37.55Z"/><path class="cls-1" d="M38.17,15.15a20.54,20.54,0,0,0-1.56-1.67,21.57,21.57,0,1,0,1.56,1.67Zm-16.56,31A17.13,17.13,0,1,1,33.45,16.67,15.15,15.15,0,0,1,35,18.34,17.12,17.12,0,0,1,21.61,46.15Z"/><path class="cls-1" d="M24.87,29a3.26,3.26,0,1,1-3.26-3.26A3.25,3.25,0,0,1,24.87,29Z"/><path class="cls-1" d="M21.61,16a13,13,0,1,0,13,13A13,13,0,0,0,21.61,16Zm0,21.55A8.52,8.52,0,1,1,30.13,29,8.52,8.52,0,0,1,21.61,37.55Z"/><path class="cls-1" d="M24.87,29a3.26,3.26,0,1,1-3.26-3.26A3.25,3.25,0,0,1,24.87,29Z"/><path class="cls-1" d="M21.61,16a13,13,0,1,0,13,13A13,13,0,0,0,21.61,16Zm0,21.55A8.52,8.52,0,1,1,30.13,29,8.52,8.52,0,0,1,21.61,37.55Z"/><path class="cls-1" d="M24.87,29a3.26,3.26,0,1,1-3.26-3.26A3.25,3.25,0,0,1,24.87,29Z"/><path class="cls-1" d="M24.87,29a3.26,3.26,0,1,1-3.26-3.26A3.25,3.25,0,0,1,24.87,29Z"/><g id="PZWax2.tif"><path class="cls-2" d="M36.61,13.48Q35,15.07,33.45,16.67c-1,1-1.93,1.93-2.89,2.9l-3.18,3.2-3.72,3.74-2.92,2.94a1.1,1.1,0,0,0-.39.52c1-.3,2-.62,3-.86a5.68,5.68,0,0,0,1.12-.38l.35-.35,4-3.93L32,21.24,35,18.34l3.05-3a1.1,1.1,0,0,1,.14-.18A20.54,20.54,0,0,0,36.61,13.48Z"/><path class="cls-3" d="M51.26,7.85,45.16,14a.83.83,0,0,1-.71.22c-1.52-.06-3-.11-4.55-.18a1,1,0,0,0-.87.34,3.19,3.19,0,0,1-.26.26,5.37,5.37,0,0,0-.6.55,20.54,20.54,0,0,0-1.56-1.67l.75-.75a1.33,1.33,0,0,0,.42-1.1c-.08-1.46-.1-2.93-.15-4.39a.77.77,0,0,1,.26-.64l6-6a1.58,1.58,0,0,1,1.7-.52,1.53,1.53,0,0,1,1,1.35c.16,1,.33,1.92.45,2.89,0,.32.18.4.45.44,1,.14,1.9.3,2.85.43a1.56,1.56,0,0,1,1.38,1A1.52,1.52,0,0,1,51.26,7.85Z"/></g></g></g></svg>