<svg xmlns="http://www.w3.org/2000/svg" viewBox="0 0 126.85 43.3"><defs><style>.cls-1{fill:#034354;}.cls-2{fill:#98989a;}.cls-3{fill:#00737e;}</style></defs><title>Asset 3</title><g id="Layer_2" data-name="Layer 2"><g id="Layer_1-2" data-name="Layer 1"><ellipse class="cls-1" cx="101.05" cy="38.07" rx="0.18" ry="0.23"/><path class="cls-2" d="M18,17.43l2.33,0V12.47L18,12.5a2.16,2.16,0,0,0-1.54.65,2,2,0,0,0-.6,1.51v.63a2.09,2.09,0,0,0,.63,1.52A1.94,1.94,0,0,0,18,17.43Zm-1.13-2.77a1.25,1.25,0,0,1,.33-.88,1.12,1.12,0,0,1,.83-.32l1.26,0,0,3.09H18.05a1,1,0,0,1-.81-.37,1.21,1.21,0,0,1-.35-.86Z"/><path class="cls-2" d="M17.47,11.48h1v-1a.09.09,0,0,0-.06,0h-.93a.05.05,0,0,0,0,0v.93C17.42,11.45,17.43,11.48,17.47,11.48Z"/><path class="cls-2" d="M19,11.48h1v-1l0,0H19l-.06,0v.93C18.89,11.45,18.91,11.48,19,11.48Z"/><path class="cls-2" d="M29.64,19.45h0v-1l0,0h-1l-.06,0v.94c0,.07,0,.1.06.1Z"/><path class="cls-2" d="M28.13,19.45h.06v-1l-.06,0H27.2l-.05,0v.94c0,.07,0,.1.05.1Z"/><path class="cls-2" d="M35.72,12.89a1,1,0,0,0-.74-.28H33.86a2.08,2.08,0,0,0-2.09,2.13l0,1.26v.11a1.18,1.18,0,0,1-.33.32,1.08,1.08,0,0,1-.43.07h-2v-4l-.85.35a.37.37,0,0,0-.24.33l0,3.32H23V12.66l-.82.27a.41.41,0,0,0-.19.33v4.11a1.32,1.32,0,0,1-1.48,1.51h-.19l-.36.85a3.63,3.63,0,0,0,.85.08,2.12,2.12,0,0,0,1.61-.6A2.51,2.51,0,0,0,23,17.4H31A1.94,1.94,0,0,0,32.16,17a1.22,1.22,0,0,0,.9.36h1.76a1.18,1.18,0,0,0,.93-.38,1.53,1.53,0,0,0,.33-1c0-1.06,0-1.85,0-2.38A1.1,1.1,0,0,0,35.72,12.89Zm-.9,3.61H33c-.22,0-.33-.17-.33-.5V14.74a1.15,1.15,0,0,1,.35-.85,1.19,1.19,0,0,1,.85-.35h.91a.25.25,0,0,1,.27.19l0,2.27C35.14,16.33,35,16.5,34.82,16.5Z"/><path class="cls-2" d="M42.42,16.88A1.93,1.93,0,0,0,43,15.43V9.93l-.88.36a.32.32,0,0,0-.19.33v4.67c0,.82-.35,1.23-1.07,1.23h-.24l-1.37-5.83h-1.1l1.37,5.83H37.13v.88H41A2.09,2.09,0,0,0,42.42,16.88Z"/><path class="cls-2" d="M38,10.14l1.75-.55L39.57,9l-.72.25c-.29-.13-.43-.29-.43-.47s.16-.25.49-.25a1.15,1.15,0,0,1,.3,0l0-.6a1.73,1.73,0,0,0-.36,0,1.28,1.28,0,0,0-.79.23.73.73,0,0,0-.3.59.89.89,0,0,0,.38.72l-.41.13Z"/><path class="cls-2" d="M45,9.92l-.82.36a.34.34,0,0,0-.25.33V17.4H45Z"/><path class="cls-2" d="M49.35,11.48h1v-1s0,0,0,0h-.93a.09.09,0,0,0-.06,0v.93C49.29,11.45,49.31,11.48,49.35,11.48Z"/><path class="cls-2" d="M50.83,11.48h1v-1l0,0h-1a.09.09,0,0,0-.06,0v.93C50.77,11.45,50.79,11.48,50.83,11.48Z"/><path class="cls-2" d="M66.28,17.4a1.18,1.18,0,0,0,.94-.38,1.58,1.58,0,0,0,.32-1c0-1.06,0-1.85,0-2.38a1.1,1.1,0,0,0-.33-.73,1,1,0,0,0-.74-.28H65.32a2,2,0,0,0-1.49.63,2,2,0,0,0-.59,1.5l0,1.26v.11a1.18,1.18,0,0,1-.33.32,1.14,1.14,0,0,1-.44.07H60.33a7.31,7.31,0,0,0,.41-2.22,2.41,2.41,0,0,0-.35-1.43A1.7,1.7,0,0,0,59,12.28a5.36,5.36,0,0,0-1.37.19l-1.18.27-.33,1.07.85,2.69H52.41v-4l-2.32,0a2.15,2.15,0,0,0-1.54.65,2,2,0,0,0-.6,1.51v.63a2.09,2.09,0,0,0,.63,1.52,1.94,1.94,0,0,0,1.51.62l2.32,0H62.5A2,2,0,0,0,63.63,17a1.19,1.19,0,0,0,.9.36ZM51.1,16.5v0h-1a1,1,0,0,1-.8-.37,1.21,1.21,0,0,1-.35-.86v-.63a1.25,1.25,0,0,1,.33-.88,1.1,1.1,0,0,1,.82-.32l1.26,0,0,3.07Zm8.46-1a1.88,1.88,0,0,1-.34.75,1,1,0,0,1-.56.24H58l-.88-2.63.14-.36.45-.15a1.6,1.6,0,0,1,.45-.07,3.58,3.58,0,0,1,.63-.08,1.11,1.11,0,0,1,.8.27,1.16,1.16,0,0,1,.22.8A4.37,4.37,0,0,1,59.56,15.51Zm4.61.49V14.74a1.16,1.16,0,0,1,.36-.85,1.19,1.19,0,0,1,.85-.35h.9a.26.26,0,0,1,.28.19l0,2.27c0,.33-.11.5-.33.5H64.5C64.28,16.5,64.17,16.33,64.17,16Z"/><path class="cls-2" d="M76,18.09H75s-.08,0-.08,0v1s0,.06.08.06H76a.05.05,0,0,0,.06-.06v-1s0,0,0,0Z"/><path class="cls-2" d="M71.31,17.4h6.08l-.11-.9h-.36V14.58a2.29,2.29,0,0,0-.6-1.54,2,2,0,0,0-1.48-.6,3.61,3.61,0,0,0-.73.1,7.85,7.85,0,0,0-.83.2l.16.85a7.23,7.23,0,0,1,1.43-.22,1,1,0,0,1,.79.33,1.25,1.25,0,0,1,.3.88l0,1.92H70.05V9.92l-.82.36a.36.36,0,0,0-.25.33V17.4h2.33Z"/><path class="cls-2" d="M2.34,23.92q-.09,0-.09,0v1s0,0,.09,0h.94s.06,0,.06,0V24s0,0,0,0h-1Z"/><path class="cls-2" d="M18.34,28H18V26.09a2.33,2.33,0,0,0-.61-1.56,2,2,0,0,0-1.51-.61,4.39,4.39,0,0,0-.73.09c-.33.07-.61.14-.85.21l.16.87a6.93,6.93,0,0,1,1.45-.23,1,1,0,0,1,.81.34,1.28,1.28,0,0,1,.3.89L17,28H13.41A1.14,1.14,0,0,1,13,28a1,1,0,0,1-.31-.3v-.14c0-1.07,0-1.88,0-2.42a1.08,1.08,0,0,0-.33-.73,1,1,0,0,0-.75-.3H10.41a2.07,2.07,0,0,0-1.52.64,2,2,0,0,0-.6,1.53l0,1.28v.12A1.35,1.35,0,0,1,8,28a1.2,1.2,0,0,1-.45.07H6V25.73l-.83.36a.32.32,0,0,0-.28.33l0,1.09v1.17a9,9,0,0,1-.06,1.21,1.29,1.29,0,0,1-.32.65,1.61,1.61,0,0,1-.7.38,3.64,3.64,0,0,1-.95.12A3.12,3.12,0,0,1,2,30.9a1.05,1.05,0,0,1-.6-.39A2.26,2.26,0,0,1,1,29.09a7.21,7.21,0,0,1,.47-2.45l-1,0A7,7,0,0,0,0,29.06a3.14,3.14,0,0,0,.61,2.09,2.09,2.09,0,0,0,1,.6A4.34,4.34,0,0,0,3,32a4.61,4.61,0,0,0,1.36-.2,2.19,2.19,0,0,0,1-.55,1.89,1.89,0,0,0,.51-.85A6.84,6.84,0,0,0,6,29H7.54a2,2,0,0,0,1.14-.36A1.25,1.25,0,0,0,9.6,29h1.78a1.25,1.25,0,0,0,.92-.36,1.78,1.78,0,0,0,1.11.36h5Zm-7,0H9.57q-.33,0-.33-.51V26.25A1.23,1.23,0,0,1,10.46,25h.92a.26.26,0,0,1,.28.2l.06,2.3C11.72,27.87,11.6,28,11.38,28Z"/><path class="cls-2" d="M22.58,22.05v6H20.85v-3.9l-.83.28a.39.39,0,0,0-.19.33v4.18a1.35,1.35,0,0,1-1.51,1.53h-.19l-.36.86a3.73,3.73,0,0,0,.86.08,2.16,2.16,0,0,0,1.64-.61A2.57,2.57,0,0,0,20.85,29h2.82V21.36l-.84.36A.37.37,0,0,0,22.58,22.05Z"/><path class="cls-2" d="M24.68,22.05V29h1.09V21.36l-.84.36A.37.37,0,0,0,24.68,22.05Z"/><path class="cls-2" d="M34.4,30h-.94c-.06,0-.09,0-.09,0v1s0,.05.09.05h.94s.06,0,.06-.05V30s0,0,0,0Z"/><path class="cls-2" d="M38.15,27.8a1.58,1.58,0,0,1-.38-.71,5,5,0,0,1-.3-1.39c0-.54.3-.81.91-.81a5.68,5.68,0,0,1,1.45.25l.17-1a7.19,7.19,0,0,0-1.73-.25,1.84,1.84,0,0,0-1.35.44,1.94,1.94,0,0,0-.43,1.37A9.2,9.2,0,0,0,36.88,28H34.57V24l-.86.36a.36.36,0,0,0-.25.34l0,3.37h-2V26.39a2.69,2.69,0,0,0-.65-1.82,2.09,2.09,0,0,0-1.6-.68,3.58,3.58,0,0,0-1.92.61l.25.86a3.08,3.08,0,0,1,1.53-.5,1.21,1.21,0,0,1,.93.38,1.6,1.6,0,0,1,.38,1L30.45,28H26.83V29H40.44V28q-1.27,0-1.68,0A1,1,0,0,1,38.15,27.8Z"/><path class="cls-2" d="M48,23v-.95s0-.05-.06-.05h-1s0,0,0,0v1c0,.05,0,.08,0,.08h1S48,23.05,48,23Z"/><path class="cls-2" d="M46.41,23.08s0,0,0-.08V22s0,0,0,0h-1s-.06,0-.06.05V23c0,.05,0,.08.06.08Z"/><path class="cls-2" d="M53.9,23.14s.05,0,.05-.06v-1s0,0,0,0H53c-.06,0-.08,0-.08,0v1s0,.06.08.06Z"/><path class="cls-2" d="M57,29.9H56s-.08,0-.08,0v1S56,31,56,31h1s0,0,0-.06v-1s0,0,0,0Z"/><path class="cls-2" d="M56.48,24.67l0,3.37H54.09V24l-.86.36a.36.36,0,0,0-.25.34L53,28H50.58V24l-.86.36a.36.36,0,0,0-.25.34l0,3.37H45.21a1.45,1.45,0,0,1-1.11-.37,1.75,1.75,0,0,1-.33-1.19,7.65,7.65,0,0,1,.08-1.12H43a6,6,0,0,0-.19,1.45c0,1.43.77,2.14,2.33,2.14H57.6V24l-.87.36A.38.38,0,0,0,56.48,24.67Z"/><path class="cls-2" d="M64.66,24,62.3,24a2.23,2.23,0,0,0-1.56.67,2,2,0,0,0-.61,1.53v.64a2.13,2.13,0,0,0,.64,1.55A2,2,0,0,0,62.3,29l2.36,0Zm-2.33,4.11a1.1,1.1,0,0,1-.83-.37,1.25,1.25,0,0,1-.34-.88v-.64a1.27,1.27,0,0,1,.33-.89,1.14,1.14,0,0,1,.84-.33l1.27,0,0,3.14Z"/><path class="cls-2" d="M63.19,21.89v.94c0,.08,0,.11.05.11h1V21.89l0,0h-1S63.21,21.87,63.19,21.89Z"/><path class="cls-2" d="M61.69,21.89v.94c0,.08,0,.11.05.11h1V21.89s0,0-.05,0h-.95A.05.05,0,0,0,61.69,21.89Z"/><path class="cls-2" d="M66.29,24.75v4.18a1.34,1.34,0,0,1-1.51,1.53h-.19l-.36.86a3.73,3.73,0,0,0,.86.08,2.14,2.14,0,0,0,1.64-.61A2.57,2.57,0,0,0,67.32,29V24.14l-.84.28A.39.39,0,0,0,66.29,24.75Z"/><path class="cls-2" d="M76,24.67l0,3.37H72.73V24l-2.06,0a2,2,0,0,0-1.67.78,2.68,2.68,0,0,0-.56,1.73A2.63,2.63,0,0,0,69,28.2a2,2,0,0,0,1.67.75h1a1.54,1.54,0,0,1-.37,1.1,1.45,1.45,0,0,1-1.14.41H70l-.36.86a3.73,3.73,0,0,0,.86.08,2.16,2.16,0,0,0,1.64-.61A2.53,2.53,0,0,0,72.73,29v0h4.4V24l-.86.36A.36.36,0,0,0,76,24.67ZM71.7,28h-1a1.05,1.05,0,0,1-.89-.45,1.72,1.72,0,0,1-.34-1.08,1.9,1.9,0,0,1,.34-1.06,1,1,0,0,1,.89-.48h1Z"/><path class="cls-2" d="M75.83,22.08q-.09,0-.09,0v1s0,.06.09.06h.94a.05.05,0,0,0,.06-.06v-1s0,0,0,0h-1Z"/><path class="cls-3" d="M105.2,0a21.65,21.65,0,1,0,21.65,21.65A21.65,21.65,0,0,0,105.2,0Zm12.38,6.71A33,33,0,0,0,114.28,9l-.52.41a29,29,0,0,0-3.71-3.8,29.87,29.87,0,0,0-2.46-1.9c-.43-.29-.87-.57-1.31-.85l-1-.56A19.27,19.27,0,0,1,117.58,6.71ZM105.24,3.39a27.74,27.74,0,0,1,5,3.7A29.15,29.15,0,0,1,113,10a25.49,25.49,0,0,0-5.26,6.09h-4.85A25.72,25.72,0,0,0,97.54,10,28.37,28.37,0,0,1,104.2,4C104.32,4,105.15,3.33,105.24,3.39ZM94.25,30H90.89c0-2.1.08-4.19.14-4.7.12-1,.29-2,.5-3s.48-1.94.79-2.9A31,31,0,0,1,94.74,14a28.87,28.87,0,0,1,1.61-2.51l.53-.72a24.44,24.44,0,0,1,4.81,5.4,9,9,0,0,0-5.32,2.87,8.43,8.43,0,0,0-2.18,5.65ZM105.18,2.25c-.16.08-.72.41-1,.56a28.82,28.82,0,0,0-2.52,1.73,26.15,26.15,0,0,0-2.34,2A28.17,28.17,0,0,0,97.2,8.76c-.15.18-.31.36-.46.55L96.29,9a32.29,32.29,0,0,0-3.41-2.3A19.31,19.31,0,0,1,105.18,2.25ZM90.06,24.82a28.65,28.65,0,0,0-.25,3.07c0,.16,0,.32,0,.48,0,.43,0,4.53,0,4.61v.47A19.39,19.39,0,0,1,92,7.38a30.93,30.93,0,0,1,4,2.76c-.28.36-.55.74-.81,1.11a28.1,28.1,0,0,0-1.52,2.43c-.48.85-.91,1.71-1.3,2.59S91.71,18.08,91.4,19s-.58,1.89-.81,2.86S90.19,23.83,90.06,24.82ZM101.3,38.13a.73.73,0,0,1-.47.4,1.26,1.26,0,0,1-.33,0,1.65,1.65,0,0,1-.38,0,2.09,2.09,0,0,1-.35-.13,3.09,3.09,0,0,1-.46.13,2.48,2.48,0,0,1-.45,0h-.38l-.07,0v-.46l.07,0h.76a.8.8,0,0,1-.12-.22,1.12,1.12,0,0,1,0-.27,1,1,0,0,1,0-.3.79.79,0,0,1,.15-.25.65.65,0,0,1,.22-.18.61.61,0,0,1,.28-.06.63.63,0,0,1,.27.06.65.65,0,0,1,.22.18.8.8,0,0,1,.2.55.77.77,0,0,1,0,.27.57.57,0,0,1-.12.23h.16l.24,0,.15-.06a.19.19,0,0,0,.08-.07.14.14,0,0,0,0-.06,1,1,0,0,0-.06-.32,1.35,1.35,0,0,0-.2-.37,2.34,2.34,0,0,0-.35-.36,2,2,0,0,0-.54-.28L100,36a2.36,2.36,0,0,1,.59.32,1.94,1.94,0,0,1,.68.91,1.74,1.74,0,0,1,.08.5A.82.82,0,0,1,101.3,38.13Zm1.89.45h-.42c0-.23,0-.45,0-.69s0-.46-.09-.69-.08-.46-.13-.68-.11-.43-.17-.64l.52-.16c.06.16.1.33.15.52s.08.39.11.6,0,.4.07.61,0,.41,0,.6A4.33,4.33,0,0,1,103.19,38.58Zm.13-8.76c-.52.59-1.6,1.65-1.93,2s-1.66.36-1.66.36,1.09-.91,1.69-1.35a25,25,0,0,0,2.15-2.27c.44-.48,1.2-1.43,1.42-1.7s.9-1,.9-1,.4.73-.61,1.93C104.87,28.31,103.84,29.24,103.32,29.82Zm-1-2c.18-.14.17-.39.17-.62,0-.4-.22-.77.15-1.09a1,1,0,0,1,1.06-.22c.72.46-.34,1.54-.67,1.9a5.42,5.42,0,0,1-1.36,1.12c-.3.18-1.1.76-1.44.45a.34.34,0,0,1-.09-.18,3.38,3.38,0,0,1,.83-2.89,10.65,10.65,0,0,1,1.27-1.41c.07-.07.3-.31.4-.32s0,0,0,.06l0,.07A20.42,20.42,0,0,0,101,27.89C101,28.36,102.07,28.06,102.35,27.85Zm2.16,2.71a.11.11,0,0,1,.08,0l1.92-.2c.84-.08,1.1-1.2.74-1.5s-.7-.4-.75-1c0-.28.42-1.41,1.43-.89a2.4,2.4,0,0,0,1.14.25V27L109,26c-.64.12-.47-.33-.41-.54s.32-.16.9-.41a3.6,3.6,0,0,1,.83-.34s0,0,0,0l.13,1a.17.17,0,0,1-.13.18,2.8,2.8,0,0,0-.28.06c-.15.06-.1.12-.1.28a4.36,4.36,0,0,1-.08.95,1.16,1.16,0,0,1-.17.47c-.21.29-.59.34-.84.58a9.23,9.23,0,0,0-.73.8,3,3,0,0,0-.33,1c-.16.83-2.16,1.54-3.13,1.54C103.21,31.55,104.29,30.72,104.51,30.56Zm3.1-5.71c.83-.55.93-.67.9-.3l0,.19a.35.35,0,0,1-.15.26,1.37,1.37,0,0,0-.46.62C107.65,26.16,106.79,25.41,107.61,24.85Zm-1.39,13.71-.32,0-.31,0a1.37,1.37,0,0,1-.77-.18.61.61,0,0,1-.25-.53.71.71,0,0,1,.11-.4.92.92,0,0,1,.33-.32.69.69,0,0,1-.36-.19.44.44,0,0,1-.13-.33.62.62,0,0,1,.11-.34,1.11,1.11,0,0,1,.31-.3,2.46,2.46,0,0,1,.46-.22,2.59,2.59,0,0,1,.58-.12l-.11.52-.35.07a1.47,1.47,0,0,0-.28.12.57.57,0,0,0-.19.13.19.19,0,0,0-.07.14c0,.07,0,.13.16.17a1.38,1.38,0,0,0,.46.06h.26l0,.45a1.74,1.74,0,0,0-.59.17.37.37,0,0,0-.2.31c0,.08,0,.15.17.2a1.48,1.48,0,0,0,.48.06H106l.32,0Zm2.61-2.28-.29,0h-.31a4.22,4.22,0,0,0-.53,0c0,.13.06.28.09.43s0,.31.07.46,0,.31,0,.46,0,.29,0,.43a4.33,4.33,0,0,1,0,.53h-.42a9,9,0,0,0-.12-1.36,9.41,9.41,0,0,0-.29-1.29l.33-.18.39,0h.77l.35,0Zm2.6.06-.2.64c-.08.23-.15.49-.24.76s-.16.55-.25.84h-.44c-.08-.27-.17-.52-.25-.76l-.24-.68c-.09-.22-.17-.44-.26-.65l-.27-.63.52-.17.18.44.19.54.19.57c.06.19.12.37.17.54.08-.36.17-.72.27-1.06s.19-.69.29-1l.5.17C111.55,36,111.49,36.15,111.43,36.34Zm8.12-1.87h0v.24h0a18.8,18.8,0,0,1-2.31,2.15V34h-4.68V25.92a5.76,5.76,0,0,0-5.77-5.76h-3.37a5.76,5.76,0,0,0-5.77,5.76V34H93v2.74a19.68,19.68,0,0,1-2.2-2.08c0-.47,0-1.83.05-3.37h4.64V30l0-5.34a7.54,7.54,0,0,1,7.67-7.37h4.1a7.53,7.53,0,0,1,7.66,7.38v6.6h4.68C119.56,32.73,119.55,34.15,119.55,34.47Zm0-4.43h-3.43V24.71a8.65,8.65,0,0,0-5.79-8.08h0l-.12,0-.12,0a8.68,8.68,0,0,0-1.24-.32,24.88,24.88,0,0,1,4.77-5.38c.25.33.49.67.73,1a30.7,30.7,0,0,1,2.25,3.89,28.4,28.4,0,0,1,1.55,3.89,28.8,28.8,0,0,1,1,4.1,30.43,30.43,0,0,1,.42,4.26Zm.82-4.87a30.81,30.81,0,0,0-2-8,33,33,0,0,0-1.76-3.64q-.5-.87-1-1.71c-.35-.53-.72-1.07-1.11-1.59h0a32.18,32.18,0,0,1,4-2.76,19.43,19.43,0,0,1,2.17,26c0-1.64,0-3.89,0-4A30.75,30.75,0,0,0,120.39,25.17Z"/><ellipse class="cls-3" cx="99.78" cy="37.51" rx="0.25" ry="0.31"/></g></g></svg>